<mxfile host="app.diagrams.net" agent="Mozilla/5.0 (Windows NT 10.0; Win64; x64) AppleWebKit/537.36 (KHTML, like Gecko) Chrome/133.0.0.0 Safari/537.36" version="26.0.15">
  <diagram name="Страница — 1" id="3IBERJdqMoV56ukygL7j">
    <mxGraphModel dx="1050" dy="653" grid="1" gridSize="10" guides="1" tooltips="1" connect="1" arrows="1" fold="1" page="1" pageScale="1" pageWidth="1169" pageHeight="827" math="0" shadow="0">
      <root>
        <mxCell id="0" />
        <mxCell id="1" parent="0" />
        <mxCell id="nSf0bVhXidRn7nTion8z-8" value="&lt;span style=&quot;color: rgb(64, 64, 64); font-family: Inter, system-ui, -apple-system, BlinkMacSystemFont, &amp;quot;Segoe UI&amp;quot;, Roboto, &amp;quot;Noto Sans&amp;quot;, Ubuntu, Cantarell, &amp;quot;Helvetica Neue&amp;quot;, Oxygen, &amp;quot;Open Sans&amp;quot;, sans-serif; font-size: 16.002px; text-align: left;&quot;&gt;Веб-интерфейс&lt;/span&gt;" style="html=1;dropTarget=0;whiteSpace=wrap;fontStyle=1" parent="1" vertex="1">
          <mxGeometry x="440" y="90" width="180" height="90" as="geometry" />
        </mxCell>
        <mxCell id="nSf0bVhXidRn7nTion8z-9" value="" style="shape=module;jettyWidth=8;jettyHeight=4;" parent="nSf0bVhXidRn7nTion8z-8" vertex="1">
          <mxGeometry x="1" width="20" height="20" relative="1" as="geometry">
            <mxPoint x="-27" y="7" as="offset" />
          </mxGeometry>
        </mxCell>
        <mxCell id="hVDRXSYQ0aSBi0BUtA2R-1" value="&lt;span style=&quot;font-weight: 400;&quot;&gt;Платежный шлюз&lt;/span&gt;" style="html=1;dropTarget=0;whiteSpace=wrap;fontStyle=1" vertex="1" parent="1">
          <mxGeometry x="460" y="220" width="180" height="90" as="geometry" />
        </mxCell>
        <mxCell id="hVDRXSYQ0aSBi0BUtA2R-2" value="" style="shape=module;jettyWidth=8;jettyHeight=4;" vertex="1" parent="hVDRXSYQ0aSBi0BUtA2R-1">
          <mxGeometry x="1" width="20" height="20" relative="1" as="geometry">
            <mxPoint x="-27" y="7" as="offset" />
          </mxGeometry>
        </mxCell>
        <mxCell id="hVDRXSYQ0aSBi0BUtA2R-3" value="&lt;span style=&quot;font-weight: 400;&quot;&gt;База данных&lt;/span&gt;" style="html=1;dropTarget=0;whiteSpace=wrap;fontStyle=1" vertex="1" parent="1">
          <mxGeometry x="250" y="220" width="180" height="90" as="geometry" />
        </mxCell>
        <mxCell id="hVDRXSYQ0aSBi0BUtA2R-4" value="" style="shape=module;jettyWidth=8;jettyHeight=4;" vertex="1" parent="hVDRXSYQ0aSBi0BUtA2R-3">
          <mxGeometry x="1" width="20" height="20" relative="1" as="geometry">
            <mxPoint x="-27" y="7" as="offset" />
          </mxGeometry>
        </mxCell>
        <mxCell id="hVDRXSYQ0aSBi0BUtA2R-5" value="&lt;span style=&quot;font-weight: 400;&quot;&gt;Сервис уведомлений&lt;/span&gt;" style="html=1;dropTarget=0;whiteSpace=wrap;fontStyle=1" vertex="1" parent="1">
          <mxGeometry x="700" y="220" width="180" height="90" as="geometry" />
        </mxCell>
        <mxCell id="hVDRXSYQ0aSBi0BUtA2R-6" value="" style="shape=module;jettyWidth=8;jettyHeight=4;" vertex="1" parent="hVDRXSYQ0aSBi0BUtA2R-5">
          <mxGeometry x="1" width="20" height="20" relative="1" as="geometry">
            <mxPoint x="-27" y="7" as="offset" />
          </mxGeometry>
        </mxCell>
        <mxCell id="hVDRXSYQ0aSBi0BUtA2R-7" value="&lt;span style=&quot;font-weight: 400;&quot;&gt;Веб-интерфейс администратора&lt;/span&gt;" style="html=1;dropTarget=0;whiteSpace=wrap;fontStyle=1" vertex="1" parent="1">
          <mxGeometry x="250" y="390" width="180" height="90" as="geometry" />
        </mxCell>
        <mxCell id="hVDRXSYQ0aSBi0BUtA2R-8" value="" style="shape=module;jettyWidth=8;jettyHeight=4;" vertex="1" parent="hVDRXSYQ0aSBi0BUtA2R-7">
          <mxGeometry x="1" width="20" height="20" relative="1" as="geometry">
            <mxPoint x="-27" y="7" as="offset" />
          </mxGeometry>
        </mxCell>
        <mxCell id="hVDRXSYQ0aSBi0BUtA2R-10" value="" style="endArrow=open;endFill=1;endSize=12;html=1;rounded=0;exitX=0.576;exitY=0.967;exitDx=0;exitDy=0;exitPerimeter=0;" edge="1" parent="1" source="nSf0bVhXidRn7nTion8z-8">
          <mxGeometry width="160" relative="1" as="geometry">
            <mxPoint x="500" y="180" as="sourcePoint" />
            <mxPoint x="544" y="220" as="targetPoint" />
          </mxGeometry>
        </mxCell>
        <mxCell id="hVDRXSYQ0aSBi0BUtA2R-11" value="" style="endArrow=open;endFill=1;endSize=12;html=1;rounded=0;entryX=0.436;entryY=1.024;entryDx=0;entryDy=0;exitX=0.436;exitY=0;exitDx=0;exitDy=0;exitPerimeter=0;entryPerimeter=0;" edge="1" parent="1" source="hVDRXSYQ0aSBi0BUtA2R-7" target="hVDRXSYQ0aSBi0BUtA2R-3">
          <mxGeometry width="160" relative="1" as="geometry">
            <mxPoint x="649.5" y="374" as="sourcePoint" />
            <mxPoint x="470" y="454" as="targetPoint" />
          </mxGeometry>
        </mxCell>
        <mxCell id="hVDRXSYQ0aSBi0BUtA2R-14" value="" style="endArrow=open;endFill=1;endSize=12;html=1;rounded=0;entryX=0.5;entryY=0;entryDx=0;entryDy=0;" edge="1" parent="1" target="hVDRXSYQ0aSBi0BUtA2R-3">
          <mxGeometry width="160" relative="1" as="geometry">
            <mxPoint x="440" y="180" as="sourcePoint" />
            <mxPoint x="350.344827586207" y="280" as="targetPoint" />
          </mxGeometry>
        </mxCell>
        <mxCell id="hVDRXSYQ0aSBi0BUtA2R-16" value="" style="endArrow=open;endFill=1;endSize=12;html=1;rounded=0;entryX=0.5;entryY=0;entryDx=0;entryDy=0;exitX=1;exitY=1;exitDx=0;exitDy=0;" edge="1" parent="1" source="nSf0bVhXidRn7nTion8z-8" target="hVDRXSYQ0aSBi0BUtA2R-5">
          <mxGeometry width="160" relative="1" as="geometry">
            <mxPoint x="620" y="150" as="sourcePoint" />
            <mxPoint x="630.5" y="220" as="targetPoint" />
          </mxGeometry>
        </mxCell>
      </root>
    </mxGraphModel>
  </diagram>
</mxfile>
